<?xml version="1.0" encoding="UTF-8" standalone="no"?>
<svg
   id="Ebene_1"
   data-name="Ebene 1"
   viewBox="0 0 526.46276 86.042353"
   version="1.1"
   sodipodi:docname="LD_logo_wordmark_blue.svg"
   width="526.46277"
   height="86.042351"
   inkscape:version="1.3 (0e150ed, 2023-07-21)"
   xmlns:inkscape="http://www.inkscape.org/namespaces/inkscape"
   xmlns:sodipodi="http://sodipodi.sourceforge.net/DTD/sodipodi-0.dtd"
   xmlns="http://www.w3.org/2000/svg"
   xmlns:svg="http://www.w3.org/2000/svg">
  <sodipodi:namedview
     id="namedview30"
     pagecolor="#ffffff"
     bordercolor="#666666"
     borderopacity="1.0"
     inkscape:showpageshadow="2"
     inkscape:pageopacity="0.0"
     inkscape:pagecheckerboard="0"
     inkscape:deskcolor="#d1d1d1"
     inkscape:zoom="0.5855789"
     inkscape:cx="263.84148"
     inkscape:cy="201.50999"
     inkscape:window-width="1312"
     inkscape:window-height="449"
     inkscape:window-x="0"
     inkscape:window-y="25"
     inkscape:window-maximized="0"
     inkscape:current-layer="Ebene_1" />
  <defs
     id="defs1">
    <style
       id="style1">&#10;      .cls-1 {&#10;        fill: #fff;&#10;      }&#10;&#10;      .cls-2 {&#10;        fill: #2e88c1;&#10;      }&#10;&#10;      .cls-3 {&#10;        fill: none;&#10;        stroke: #1d1d1b;&#10;        stroke-miterlimit: 10;&#10;        stroke-width: .5px;&#10;      }&#10;    </style>
  </defs>
  <g
     id="g10"
     transform="translate(-157.28725,4.51183e-4)">
    <path
       class="cls-2"
       d="m 453.84,48.56 c 0,0.36 0.03,29.01 0.03,29.01 h 5.17 l 0.03,-23.55 h 22.6 c 0,0 0,23.55 0,23.55 h 4.88 l -0.02,-57.02 h -4.75 c -20.18,0 -27.93,15.84 -27.93,28.01 z m 5.2,0 c 0,-10.65 6.92,-22.8 22.62,-22.8 v 0 l -0.03,22.8 c 0,0 -21.19,0 -22.59,0 z"
       id="path1" />
    <polygon
       class="cls-2"
       points="374.79,20.55 374.79,26.01 387.6,26 387.62,77.57 393.17,77.57 393.16,26.01 407.67,26.01 407.67,20.55 "
       id="polygon1" />
    <polygon
       class="cls-2"
       points="492.54,20.55 492.54,26.01 505.38,26 505.38,77.58 510.89,77.58 510.91,26.01 525.42,26.01 525.42,20.55 "
       id="polygon2" />
    <path
       class="cls-2"
       d="m 611.74,48.56 c 0,0.36 0.03,29.01 0.03,29.01 h 5.17 l 0.03,-23.55 h 22.6 c 0,0 0,23.55 0,23.55 h 4.88 l -0.02,-57.02 h -4.75 c -20.18,0 -27.93,15.84 -27.93,28.01 z m 5.2,0 c 0,-10.65 6.92,-22.8 22.62,-22.8 v 0 l -0.03,22.8 c 0,0 -21.19,0 -22.59,0 z"
       id="path2" />
    <polygon
       class="cls-2"
       points="650.88,20.55 650.88,26.01 663.74,26 663.87,77.57 669.38,77.57 669.25,26.01 683.75,26.01 683.75,20.55 "
       id="polygon3" />
    <polygon
       class="cls-2"
       points="269.4,77.57 269.53,20.55 275.04,20.55 274.91,72.11 297.24,72.11 297.24,77.57 "
       id="polygon4" />
    <polygon
       class="cls-2"
       points="605.2,77.57 605.07,71.94 599.56,71.92 599.69,77.57 "
       id="polygon5" />
    <path
       class="cls-2"
       d="m 230.91,37.4 c 5.42,5.72 8.74,12.68 9.96,19.89 2.75,-7.82 3.28,-16.51 1.04,-25.1 C 235.95,9.29 212.5,-4.75 189.19,1.48 173.74,5.61 162.5,17.59 158.69,32.07 l 21.47,16.59 c 12.28,9.49 30.01,9.44 39.54,-2.9 1.49,1.15 2.68,2.07 4.73,3.65 -11.72,15.18 -33.17,15.42 -47.94,4.01 L 157.5,38.75 c -0.5,5 -0.13,10.19 1.23,15.37 6.31,23.2 29.76,36.37 52.29,30.55 10.13,-2.62 18.43,-8.58 24.08,-16.37 1.37,-9.38 -1.44,-19.33 -8.52,-26.79 -12.14,-12.8 -32.3,-13.47 -44.92,-1.49 l -1.42,1.35 -4.12,-4.34 1.42,-1.35 c 15.01,-14.24 38.95,-13.46 53.36,1.73 z"
       id="path5" />
    <path
       class="cls-2"
       d="m 420.83,20.51 h -6.38 c 0,0 0,57.03 0,57.03 h 6.4 c 13.46,0 27.03,-9.13 27.03,-28.53 0,-19.4 -14.01,-28.49 -27.04,-28.49 z m 0,51.41 c -1.18,0 -0.92,0 -0.92,0 V 25.98 h 0.92 c 8.01,0 21.58,4.85 21.58,23.03 0,16.7 -11.62,22.92 -21.58,22.92 z"
       id="path6" />
    <path
       class="cls-2"
       d="M 553.68,72.03 530.72,72.1 V 54.03 h 17.24 v -5.46 h -17.21 c 0.24,-17.78 13.61,-22.56 21.55,-22.56 h 1.39 v -5.46 h -1.39 c -13.02,0 -27.04,8.92 -27.04,28.49 v 28.54 c 0,0 28.43,-0.02 28.43,-0.02 v -5.53 z"
       id="path7" />
    <path
       class="cls-2"
       d="M 346.43,77.43 V 53.88 h 17.24 v -5.46 h -17.21 c 0.24,-17.78 13.61,-22.56 21.55,-22.56 v 0 -5.46 0 c -13.02,0 -27.04,8.92 -27.04,28.49 v 28.54 z"
       id="path8" />
    <path
       class="cls-2"
       d="M 587.55,77.58 587.53,48.57 C 587.29,30.79 573.92,26.13 565.98,26.13 l -0.17,51.45 h -5.74 l 0.07,-57.03 h 5.84 c 13.02,0 27.04,8.92 27.04,28.49 v 28.54 h -5.46 z"
       id="path9" />
    <path
       class="cls-2"
       d="m 334.02,19.92 h -5.47 v 41.51 c 0,7.12 -5.18,10.96 -10.31,11.43 -0.38,0.03 -0.75,0.05 -1.14,0.05 -0.38,0 -0.76,-0.02 -1.13,-0.05 -5.14,-0.48 -10.32,-4.32 -10.32,-11.43 V 19.92 h -5.48 v 42.44 c 0,8.82 6.37,14.35 13.78,15.58 1.02,0.17 2.06,0.26 3.1,0.26 0.02,0 0.03,0 0.05,0 0.02,0 0.03,0 0.05,0 1.04,0 2.07,-0.09 3.1,-0.26 7.42,-1.23 13.78,-6.76 13.78,-15.58 v -42.44 0 z"
       id="path10" />
  </g>
</svg>
